<svg xmlns="http://www.w3.org/2000/svg" width="720" height="720" viewBox="0 0 720 720" fill="none">
<path d="M82 76 C191 219 191 219 276 398" stroke="#7F896E" stroke-width="2.5" stroke-linecap="round" fill="none" opacity=".27"/>
<g transform="translate(135 150) rotate(55)" opacity="0.45">
<path d="M0 -29 C14 -17.98 14 17.98 0 29 C-14 17.98 -14 -17.98 0 -29Z" fill="#E8D6BF"/>
</g>
<g transform="translate(185 228) rotate(55)" opacity="0.45">
<path d="M0 -27 C9 -16.74 9 16.74 0 27 C-9 16.74 -9 -16.74 0 -27Z" fill="#E8D6BF"/>
</g>
<g transform="translate(232 311) rotate(35)" opacity="0.45">
<path d="M0 -30 C14 -18.6 14 18.6 0 30 C-14 18.6 -14 -18.6 0 -30Z" fill="#E8D6BF"/>
</g>
<path d="M99 97 C165 171 165 171 363 298" stroke="#7F896E" stroke-width="2.5" stroke-linecap="round" fill="none" opacity=".27"/>
<g transform="translate(140 137) rotate(55)" opacity="0.45">
<path d="M0 -24 C11 -14.879999999999999 11 14.879999999999999 0 24 C-11 14.879999999999999 -11 -14.879999999999999 0 -24Z" fill="#C7CCB7"/>
</g>
<g transform="translate(198 184) rotate(35)" opacity="0.45">
<path d="M0 -20 C13 -12.4 13 12.4 0 20 C-13 12.4 -13 -12.4 0 -20Z" fill="#A7AE91"/>
</g>
<g transform="translate(272 238) rotate(35)" opacity="0.45">
<path d="M0 -28 C11 -17.36 11 17.36 0 28 C-11 17.36 -11 -17.36 0 -28Z" fill="#C7CCB7"/>
</g>
<path d="M80 70 C198 206 198 206 348 492" stroke="#7F896E" stroke-width="2.5" stroke-linecap="round" fill="none" opacity=".27"/>
<g transform="translate(141 147) rotate(35)" opacity="0.45">
<path d="M0 -25 C13 -15.5 13 15.5 0 25 C-13 15.5 -13 -15.5 0 -25Z" fill="#A7AE91"/>
</g>
<g transform="translate(206 244) rotate(55)" opacity="0.45">
<path d="M0 -24 C14 -14.879999999999999 14 14.879999999999999 0 24 C-14 14.879999999999999 -14 -14.879999999999999 0 -24Z" fill="#A7AE91"/>
</g>
<g transform="translate(275 358) rotate(35)" opacity="0.45">
<path d="M0 -21 C8 -13.02 8 13.02 0 21 C-8 13.02 -8 -13.02 0 -21Z" fill="#C7CCB7"/>
</g>
<path d="M80 81 C196 279 196 279 362 475" stroke="#7F896E" stroke-width="2.5" stroke-linecap="round" fill="none" opacity=".27"/>
<g transform="translate(141 180) rotate(35)" opacity="0.45">
<path d="M0 -20 C9 -12.4 9 12.4 0 20 C-9 12.4 -9 -12.4 0 -20Z" fill="#C7CCB7"/>
</g>
<g transform="translate(208 278) rotate(35)" opacity="0.45">
<path d="M0 -28 C13 -17.36 13 17.36 0 28 C-13 17.36 -13 -17.36 0 -28Z" fill="#C7CCB7"/>
</g>
<g transform="translate(282 377) rotate(55)" opacity="0.45">
<path d="M0 -24 C9 -14.879999999999999 9 14.879999999999999 0 24 C-9 14.879999999999999 -9 -14.879999999999999 0 -24Z" fill="#A7AE91"/>
</g>
<ellipse cx="208.8" cy="184.0" rx="5.3" ry="8.8" transform="rotate(0 208.8 184.0)" fill="#E9DDEC" opacity="0.26"/>
<ellipse cx="202.7" cy="192.4" rx="5.3" ry="8.8" transform="rotate(72 202.7 192.4)" fill="#E9DDEC" opacity="0.26"/>
<ellipse cx="192.9" cy="189.2" rx="5.3" ry="8.8" transform="rotate(144 192.9 189.2)" fill="#E9DDEC" opacity="0.26"/>
<ellipse cx="192.9" cy="178.8" rx="5.3" ry="8.8" transform="rotate(216 192.9 178.8)" fill="#E9DDEC" opacity="0.26"/>
<ellipse cx="202.7" cy="175.6" rx="5.3" ry="8.8" transform="rotate(288 202.7 175.6)" fill="#E9DDEC" opacity="0.26"/>
<circle cx="200" cy="184" r="2.9" fill="#E8D6BF" opacity=".45"/>
<ellipse cx="218.7" cy="418.0" rx="4.6" ry="7.7" transform="rotate(0 218.7 418.0)" fill="#E8D6BF" opacity="0.26"/>
<ellipse cx="213.4" cy="425.3" rx="4.6" ry="7.7" transform="rotate(72 213.4 425.3)" fill="#E8D6BF" opacity="0.26"/>
<ellipse cx="204.8" cy="422.5" rx="4.6" ry="7.7" transform="rotate(144 204.8 422.5)" fill="#E8D6BF" opacity="0.26"/>
<ellipse cx="204.8" cy="413.5" rx="4.6" ry="7.7" transform="rotate(216 204.8 413.5)" fill="#E8D6BF" opacity="0.26"/>
<ellipse cx="213.4" cy="410.7" rx="4.6" ry="7.7" transform="rotate(288 213.4 410.7)" fill="#E8D6BF" opacity="0.26"/>
<circle cx="211" cy="418" r="2.5" fill="#E8D6BF" opacity=".45"/>
<ellipse cx="174.9" cy="258.0" rx="5.9" ry="9.9" transform="rotate(0 174.9 258.0)" fill="#E8D6BF" opacity="0.26"/>
<ellipse cx="168.1" cy="267.4" rx="5.9" ry="9.9" transform="rotate(72 168.1 267.4)" fill="#E8D6BF" opacity="0.26"/>
<ellipse cx="157.0" cy="263.8" rx="5.9" ry="9.9" transform="rotate(144 157.0 263.8)" fill="#E8D6BF" opacity="0.26"/>
<ellipse cx="157.0" cy="252.2" rx="5.9" ry="9.9" transform="rotate(216 157.0 252.2)" fill="#E8D6BF" opacity="0.26"/>
<ellipse cx="168.1" cy="248.6" rx="5.9" ry="9.9" transform="rotate(288 168.1 248.6)" fill="#E8D6BF" opacity="0.26"/>
<circle cx="165" cy="258" r="3.2" fill="#E8D6BF" opacity=".45"/>
</svg>
