<svg xmlns="http://www.w3.org/2000/svg" width="800" height="800" viewBox="0 0 800 800" fill="none">
<path d="M85 72 C270 345 270 345 294 398" stroke="#7F896E" stroke-width="3" stroke-linecap="round" fill="none" opacity="0.42"/>
<g transform="translate(153 172) rotate(-45)" opacity="0.55">
<path d="M0 -26 C18 -16.900000000000002 18 16.900000000000002 0 26 C-18 16.900000000000002 -18 -16.900000000000002 0 -26Z" fill="#A7AE91"/>
<path d="M0 -19.5 C-1 -5.2 1 6.5 0 19.5" stroke="#7F896E" stroke-width="2" stroke-linecap="round" opacity=".28"/>
</g>
<g transform="translate(207 255) rotate(-20)" opacity="0.65">
<path d="M0 -41 C17 -26.650000000000002 17 26.650000000000002 0 41 C-17 26.650000000000002 -17 -26.650000000000002 0 -41Z" fill="#C7CCB7"/>
<path d="M0 -30.75 C-1 -8.200000000000001 1 10.25 0 30.75" stroke="#7F896E" stroke-width="2" stroke-linecap="round" opacity=".28"/>
</g>
<g transform="translate(249 320) rotate(5)" opacity="0.75">
<path d="M0 -40 C16 -26.0 16 26.0 0 40 C-16 26.0 -16 -26.0 0 -40Z" fill="#7F896E"/>
<path d="M0 -30.0 C-1 -8.0 1 10.0 0 30.0" stroke="#7F896E" stroke-width="2" stroke-linecap="round" opacity=".28"/>
</g>
<g transform="translate(278 368) rotate(30)" opacity="0.55">
<path d="M0 -33 C21 -21.45 21 21.45 0 33 C-21 21.45 -21 -21.45 0 -33Z" fill="#E8D6BF"/>
<path d="M0 -24.75 C-1 -6.6000000000000005 1 8.25 0 24.75" stroke="#7F896E" stroke-width="2" stroke-linecap="round" opacity=".28"/>
</g>
<path d="M90 55 C172 287 172 287 299 408" stroke="#7F896E" stroke-width="3" stroke-linecap="round" fill="none" opacity="0.42"/>
<g transform="translate(125 143) rotate(-45)" opacity="0.65">
<path d="M0 -32 C17 -20.8 17 20.8 0 32 C-17 20.8 -17 -20.8 0 -32Z" fill="#C7CCB7"/>
<path d="M0 -24.0 C-1 -6.4 1 8.0 0 24.0" stroke="#7F896E" stroke-width="2" stroke-linecap="round" opacity=".28"/>
</g>
<g transform="translate(163 223) rotate(-20)" opacity="0.75">
<path d="M0 -44 C12 -28.6 12 28.6 0 44 C-12 28.6 -12 -28.6 0 -44Z" fill="#7F896E"/>
<path d="M0 -33.0 C-1 -8.8 1 11.0 0 33.0" stroke="#7F896E" stroke-width="2" stroke-linecap="round" opacity=".28"/>
</g>
<g transform="translate(205 293) rotate(5)" opacity="0.55">
<path d="M0 -28 C15 -18.2 15 18.2 0 28 C-15 18.2 -15 -18.2 0 -28Z" fill="#E8D6BF"/>
<path d="M0 -21.0 C-1 -5.6000000000000005 1 7.0 0 21.0" stroke="#7F896E" stroke-width="2" stroke-linecap="round" opacity=".28"/>
</g>
<g transform="translate(250 355) rotate(30)" opacity="0.65">
<path d="M0 -36 C20 -23.400000000000002 20 23.400000000000002 0 36 C-20 23.400000000000002 -20 -23.400000000000002 0 -36Z" fill="#A7AE91"/>
<path d="M0 -27.0 C-1 -7.2 1 9.0 0 27.0" stroke="#7F896E" stroke-width="2" stroke-linecap="round" opacity=".28"/>
</g>
<path d="M98 80 C157 179 157 179 220 663" stroke="#7F896E" stroke-width="3" stroke-linecap="round" fill="none" opacity="0.42"/>
<g transform="translate(122 135) rotate(-45)" opacity="0.75">
<path d="M0 -33 C20 -21.45 20 21.45 0 33 C-20 21.45 -20 -21.45 0 -33Z" fill="#7F896E"/>
<path d="M0 -24.75 C-1 -6.6000000000000005 1 8.25 0 24.75" stroke="#7F896E" stroke-width="2" stroke-linecap="round" opacity=".28"/>
</g>
<g transform="translate(146 221) rotate(-20)" opacity="0.55">
<path d="M0 -39 C13 -25.35 13 25.35 0 39 C-13 25.35 -13 -25.35 0 -39Z" fill="#E8D6BF"/>
<path d="M0 -29.25 C-1 -7.800000000000001 1 9.75 0 29.25" stroke="#7F896E" stroke-width="2" stroke-linecap="round" opacity=".28"/>
</g>
<g transform="translate(170 337) rotate(5)" opacity="0.65">
<path d="M0 -29 C19 -18.85 19 18.85 0 29 C-19 18.85 -19 -18.85 0 -29Z" fill="#A7AE91"/>
<path d="M0 -21.75 C-1 -5.800000000000001 1 7.25 0 21.75" stroke="#7F896E" stroke-width="2" stroke-linecap="round" opacity=".28"/>
</g>
<g transform="translate(195 485) rotate(30)" opacity="0.75">
<path d="M0 -39 C22 -25.35 22 25.35 0 39 C-22 25.35 -22 -25.35 0 -39Z" fill="#C7CCB7"/>
<path d="M0 -29.25 C-1 -7.800000000000001 1 9.75 0 29.25" stroke="#7F896E" stroke-width="2" stroke-linecap="round" opacity=".28"/>
</g>
<path d="M63 89 C215 334 215 334 347 408" stroke="#7F896E" stroke-width="2" stroke-linecap="round" fill="none" opacity="0.25"/>
<g transform="translate(123 180) rotate(-45)" opacity="0.55">
<path d="M0 -43 C12 -27.95 12 27.95 0 43 C-12 27.95 -12 -27.95 0 -43Z" fill="#E8D6BF"/>
<path d="M0 -32.25 C-1 -8.6 1 10.75 0 32.25" stroke="#7F896E" stroke-width="2" stroke-linecap="round" opacity=".28"/>
</g>
<g transform="translate(181 258) rotate(-20)" opacity="0.65">
<path d="M0 -42 C14 -27.3 14 27.3 0 42 C-14 27.3 -14 -27.3 0 -42Z" fill="#A7AE91"/>
<path d="M0 -31.5 C-1 -8.4 1 10.5 0 31.5" stroke="#7F896E" stroke-width="2" stroke-linecap="round" opacity=".28"/>
</g>
<g transform="translate(238 321) rotate(5)" opacity="0.75">
<path d="M0 -38 C13 -24.7 13 24.7 0 38 C-13 24.7 -13 -24.7 0 -38Z" fill="#C7CCB7"/>
<path d="M0 -28.5 C-1 -7.6000000000000005 1 9.5 0 28.5" stroke="#7F896E" stroke-width="2" stroke-linecap="round" opacity=".28"/>
</g>
<g transform="translate(293 372) rotate(30)" opacity="0.55">
<path d="M0 -39 C21 -25.35 21 25.35 0 39 C-21 25.35 -21 -25.35 0 -39Z" fill="#7F896E"/>
<path d="M0 -29.25 C-1 -7.800000000000001 1 9.75 0 29.25" stroke="#7F896E" stroke-width="2" stroke-linecap="round" opacity=".28"/>
</g>
<path d="M97 93 C255 297 255 297 360 521" stroke="#7F896E" stroke-width="2" stroke-linecap="round" fill="none" opacity="0.25"/>
<g transform="translate(158 175) rotate(-45)" opacity="0.65">
<path d="M0 -26 C20 -16.900000000000002 20 16.900000000000002 0 26 C-20 16.900000000000002 -20 -16.900000000000002 0 -26Z" fill="#A7AE91"/>
<path d="M0 -19.5 C-1 -5.2 1 6.5 0 19.5" stroke="#7F896E" stroke-width="2" stroke-linecap="round" opacity=".28"/>
</g>
<g transform="translate(215 259) rotate(-20)" opacity="0.75">
<path d="M0 -28 C22 -18.2 22 18.2 0 28 C-22 18.2 -22 -18.2 0 -28Z" fill="#C7CCB7"/>
<path d="M0 -21.0 C-1 -5.6000000000000005 1 7.0 0 21.0" stroke="#7F896E" stroke-width="2" stroke-linecap="round" opacity=".28"/>
</g>
<g transform="translate(268 345) rotate(5)" opacity="0.55">
<path d="M0 -34 C15 -22.1 15 22.1 0 34 C-15 22.1 -15 -22.1 0 -34Z" fill="#7F896E"/>
<path d="M0 -25.5 C-1 -6.800000000000001 1 8.5 0 25.5" stroke="#7F896E" stroke-width="2" stroke-linecap="round" opacity=".28"/>
</g>
<g transform="translate(316 432) rotate(30)" opacity="0.65">
<path d="M0 -37 C17 -24.05 17 24.05 0 37 C-17 24.05 -17 -24.05 0 -37Z" fill="#E8D6BF"/>
<path d="M0 -27.75 C-1 -7.4 1 9.25 0 27.75" stroke="#7F896E" stroke-width="2" stroke-linecap="round" opacity=".28"/>
</g>
<circle cx="412" cy="499" r="6" fill="#D8A095" opacity=".25"/>
<circle cx="344" cy="275" r="6" fill="#E8D6BF" opacity=".25"/>
<circle cx="405" cy="416" r="8" fill="#C9B2D8" opacity=".25"/>
<circle cx="306" cy="169" r="7" fill="#E8D6BF" opacity=".25"/>
<circle cx="231" cy="420" r="4" fill="#D8A095" opacity=".25"/>
<circle cx="433" cy="177" r="7" fill="#D8A095" opacity=".25"/>
<circle cx="267" cy="540" r="8" fill="#D8A095" opacity=".25"/>
<circle cx="306" cy="194" r="9" fill="#E8D6BF" opacity=".25"/>
</svg>
