<svg xmlns="http://www.w3.org/2000/svg" width="800" height="800" viewBox="0 0 800 800" fill="none">
<path d="M70 726 C161 441 161 441 306 230" stroke="#7F896E" stroke-width="3" stroke-linecap="round" fill="none" opacity="0.42"/>
<g transform="translate(109 615) rotate(-45)" opacity="0.55">
<path d="M0 -28 C14 -18.2 14 18.2 0 28 C-14 18.2 -14 -18.2 0 -28Z" fill="#A7AE91"/>
<path d="M0 -21.0 C-1 -5.6000000000000005 1 7.0 0 21.0" stroke="#7F896E" stroke-width="2" stroke-linecap="round" opacity=".28"/>
</g>
<g transform="translate(151 510) rotate(-20)" opacity="0.65">
<path d="M0 -26 C13 -16.900000000000002 13 16.900000000000002 0 26 C-13 16.900000000000002 -13 -16.900000000000002 0 -26Z" fill="#C7CCB7"/>
<path d="M0 -19.5 C-1 -5.2 1 6.5 0 19.5" stroke="#7F896E" stroke-width="2" stroke-linecap="round" opacity=".28"/>
</g>
<g transform="translate(199 411) rotate(5)" opacity="0.75">
<path d="M0 -43 C18 -27.95 18 27.95 0 43 C-18 27.95 -18 -27.95 0 -43Z" fill="#7F896E"/>
<path d="M0 -32.25 C-1 -8.6 1 10.75 0 32.25" stroke="#7F896E" stroke-width="2" stroke-linecap="round" opacity=".28"/>
</g>
<g transform="translate(250 317) rotate(30)" opacity="0.55">
<path d="M0 -27 C16 -17.55 16 17.55 0 27 C-16 17.55 -16 -17.55 0 -27Z" fill="#E8D6BF"/>
<path d="M0 -20.25 C-1 -5.4 1 6.75 0 20.25" stroke="#7F896E" stroke-width="2" stroke-linecap="round" opacity=".28"/>
</g>
<path d="M69 712 C272 533 272 533 275 387" stroke="#7F896E" stroke-width="3" stroke-linecap="round" fill="none" opacity="0.42"/>
<g transform="translate(142 642) rotate(-45)" opacity="0.65">
<path d="M0 -34 C13 -22.1 13 22.1 0 34 C-13 22.1 -13 -22.1 0 -34Z" fill="#C7CCB7"/>
<path d="M0 -25.5 C-1 -6.800000000000001 1 8.5 0 25.5" stroke="#7F896E" stroke-width="2" stroke-linecap="round" opacity=".28"/>
</g>
<g transform="translate(199 574) rotate(-20)" opacity="0.75">
<path d="M0 -26 C15 -16.900000000000002 15 16.900000000000002 0 26 C-15 16.900000000000002 -15 -16.900000000000002 0 -26Z" fill="#7F896E"/>
<path d="M0 -19.5 C-1 -5.2 1 6.5 0 19.5" stroke="#7F896E" stroke-width="2" stroke-linecap="round" opacity=".28"/>
</g>
<g transform="translate(241 509) rotate(5)" opacity="0.55">
<path d="M0 -34 C22 -22.1 22 22.1 0 34 C-22 22.1 -22 -22.1 0 -34Z" fill="#E8D6BF"/>
<path d="M0 -25.5 C-1 -6.800000000000001 1 8.5 0 25.5" stroke="#7F896E" stroke-width="2" stroke-linecap="round" opacity=".28"/>
</g>
<g transform="translate(266 447) rotate(30)" opacity="0.65">
<path d="M0 -32 C16 -20.8 16 20.8 0 32 C-16 20.8 -16 -20.8 0 -32Z" fill="#A7AE91"/>
<path d="M0 -24.0 C-1 -6.4 1 8.0 0 24.0" stroke="#7F896E" stroke-width="2" stroke-linecap="round" opacity=".28"/>
</g>
<path d="M65 726 C209 465 209 465 392 285" stroke="#7F896E" stroke-width="3" stroke-linecap="round" fill="none" opacity="0.42"/>
<g transform="translate(124 625) rotate(-45)" opacity="0.75">
<path d="M0 -36 C13 -23.400000000000002 13 23.400000000000002 0 36 C-13 23.400000000000002 -13 -23.400000000000002 0 -36Z" fill="#7F896E"/>
<path d="M0 -27.0 C-1 -7.2 1 9.0 0 27.0" stroke="#7F896E" stroke-width="2" stroke-linecap="round" opacity=".28"/>
</g>
<g transform="translate(186 530) rotate(-20)" opacity="0.55">
<path d="M0 -38 C22 -24.7 22 24.7 0 38 C-22 24.7 -22 -24.7 0 -38Z" fill="#E8D6BF"/>
<path d="M0 -28.5 C-1 -7.6000000000000005 1 9.5 0 28.5" stroke="#7F896E" stroke-width="2" stroke-linecap="round" opacity=".28"/>
</g>
<g transform="translate(252 442) rotate(5)" opacity="0.65">
<path d="M0 -33 C20 -21.45 20 21.45 0 33 C-20 21.45 -20 -21.45 0 -33Z" fill="#A7AE91"/>
<path d="M0 -24.75 C-1 -6.6000000000000005 1 8.25 0 24.75" stroke="#7F896E" stroke-width="2" stroke-linecap="round" opacity=".28"/>
</g>
<g transform="translate(320 360) rotate(30)" opacity="0.75">
<path d="M0 -33 C14 -21.45 14 21.45 0 33 C-14 21.45 -14 -21.45 0 -33Z" fill="#C7CCB7"/>
<path d="M0 -24.75 C-1 -6.6000000000000005 1 8.25 0 24.75" stroke="#7F896E" stroke-width="2" stroke-linecap="round" opacity=".28"/>
</g>
<path d="M85 728 C157 485 157 485 281 472" stroke="#7F896E" stroke-width="2" stroke-linecap="round" fill="none" opacity="0.25"/>
<g transform="translate(116 640) rotate(-45)" opacity="0.55">
<path d="M0 -44 C16 -28.6 16 28.6 0 44 C-16 28.6 -16 -28.6 0 -44Z" fill="#E8D6BF"/>
<path d="M0 -33.0 C-1 -8.8 1 11.0 0 33.0" stroke="#7F896E" stroke-width="2" stroke-linecap="round" opacity=".28"/>
</g>
<g transform="translate(151 570) rotate(-20)" opacity="0.65">
<path d="M0 -42 C16 -27.3 16 27.3 0 42 C-16 27.3 -16 -27.3 0 -42Z" fill="#A7AE91"/>
<path d="M0 -31.5 C-1 -8.4 1 10.5 0 31.5" stroke="#7F896E" stroke-width="2" stroke-linecap="round" opacity=".28"/>
</g>
<g transform="translate(190 519) rotate(5)" opacity="0.75">
<path d="M0 -39 C15 -25.35 15 25.35 0 39 C-15 25.35 -15 -25.35 0 -39Z" fill="#C7CCB7"/>
<path d="M0 -29.25 C-1 -7.800000000000001 1 9.75 0 29.25" stroke="#7F896E" stroke-width="2" stroke-linecap="round" opacity=".28"/>
</g>
<g transform="translate(233 486) rotate(30)" opacity="0.55">
<path d="M0 -35 C18 -22.75 18 22.75 0 35 C-18 22.75 -18 -22.75 0 -35Z" fill="#7F896E"/>
<path d="M0 -26.25 C-1 -7.0 1 8.75 0 26.25" stroke="#7F896E" stroke-width="2" stroke-linecap="round" opacity=".28"/>
</g>
<path d="M82 717 C176 566 176 566 283 343" stroke="#7F896E" stroke-width="2" stroke-linecap="round" fill="none" opacity="0.25"/>
<g transform="translate(120 654) rotate(-45)" opacity="0.65">
<path d="M0 -28 C12 -18.2 12 18.2 0 28 C-12 18.2 -12 -18.2 0 -28Z" fill="#A7AE91"/>
<path d="M0 -21.0 C-1 -5.6000000000000005 1 7.0 0 21.0" stroke="#7F896E" stroke-width="2" stroke-linecap="round" opacity=".28"/>
</g>
<g transform="translate(159 585) rotate(-20)" opacity="0.75">
<path d="M0 -40 C12 -26.0 12 26.0 0 40 C-12 26.0 -12 -26.0 0 -40Z" fill="#C7CCB7"/>
<path d="M0 -30.0 C-1 -8.0 1 10.0 0 30.0" stroke="#7F896E" stroke-width="2" stroke-linecap="round" opacity=".28"/>
</g>
<g transform="translate(199 510) rotate(5)" opacity="0.55">
<path d="M0 -34 C22 -22.1 22 22.1 0 34 C-22 22.1 -22 -22.1 0 -34Z" fill="#7F896E"/>
<path d="M0 -25.5 C-1 -6.800000000000001 1 8.5 0 25.5" stroke="#7F896E" stroke-width="2" stroke-linecap="round" opacity=".28"/>
</g>
<g transform="translate(241 429) rotate(30)" opacity="0.65">
<path d="M0 -43 C20 -27.95 20 27.95 0 43 C-20 27.95 -20 -27.95 0 -43Z" fill="#E8D6BF"/>
<path d="M0 -32.25 C-1 -8.6 1 10.75 0 32.25" stroke="#7F896E" stroke-width="2" stroke-linecap="round" opacity=".28"/>
</g>
<circle cx="456" cy="287" r="6" fill="#D8A095" opacity=".25"/>
<circle cx="315" cy="611" r="7" fill="#D8A095" opacity=".25"/>
<circle cx="440" cy="504" r="5" fill="#E8D6BF" opacity=".25"/>
<circle cx="438" cy="263" r="8" fill="#E8D6BF" opacity=".25"/>
<circle cx="316" cy="480" r="4" fill="#D8A095" opacity=".25"/>
<circle cx="332" cy="503" r="8" fill="#C9B2D8" opacity=".25"/>
<circle cx="336" cy="583" r="6" fill="#D8A095" opacity=".25"/>
<circle cx="363" cy="410" r="4" fill="#D8A095" opacity=".25"/>
</svg>
