<svg xmlns="http://www.w3.org/2000/svg" width="600" height="600" viewBox="0 0 600 600" fill="none">

<g transform="translate(229 397) rotate(39)" opacity="0.16">
<path d="M0 -13 C5 -8.06 5 8.06 0 13 C-5 8.06 -5 -8.06 0 -13Z" fill="#A7AE91"/>
</g>
<circle cx="545" cy="249" r="3" fill="#E8D6BF" opacity=".14"/>
<path d="M527 239 C528.2 245.0 529.8 245.8 535 247 C529.8 248.2 528.2 249.0 527 255 C525.8 249.0 524.2 248.2 519 247 C524.2 245.8 525.8 245.0 527 239Z" fill="#A7AE91" opacity="0.12"/>
<g transform="translate(102 291) rotate(-31)" opacity="0.16">
<path d="M0 -13 C5 -8.06 5 8.06 0 13 C-5 8.06 -5 -8.06 0 -13Z" fill="#A7AE91"/>
</g>
<circle cx="120" cy="485" r="4" fill="#D8A095" opacity=".14"/>
<path d="M513 356 C514.05 361.25 515.45 361.95 520 363 C515.45 364.05 514.05 364.75 513 370 C511.95 364.75 510.55 364.05 506 363 C510.55 361.95 511.95 361.25 513 356Z" fill="#E8D6BF" opacity="0.12"/>
<g transform="translate(443 462) rotate(-27)" opacity="0.16">
<path d="M0 -13 C5 -8.06 5 8.06 0 13 C-5 8.06 -5 -8.06 0 -13Z" fill="#A7AE91"/>
</g>
<circle cx="470" cy="508" r="4" fill="#D8A095" opacity=".14"/>
<path d="M143 358 C144.2 364.0 145.8 364.8 151 366 C145.8 367.2 144.2 368.0 143 374 C141.8 368.0 140.2 367.2 135 366 C140.2 364.8 141.8 364.0 143 358Z" fill="#A7AE91" opacity="0.12"/>
<g transform="translate(418 264) rotate(28)" opacity="0.16">
<path d="M0 -13 C5 -8.06 5 8.06 0 13 C-5 8.06 -5 -8.06 0 -13Z" fill="#A7AE91"/>
</g>
<circle cx="444" cy="458" r="2" fill="#E8D6BF" opacity=".14"/>
<path d="M251 118 C252.2 124.0 253.8 124.8 259 126 C253.8 127.2 252.2 128.0 251 134 C249.8 128.0 248.2 127.2 243 126 C248.2 124.8 249.8 124.0 251 118Z" fill="#D8A095" opacity="0.12"/>
<g transform="translate(409 398) rotate(-78)" opacity="0.16">
<path d="M0 -13 C5 -8.06 5 8.06 0 13 C-5 8.06 -5 -8.06 0 -13Z" fill="#C7CCB7"/>
</g>
<circle cx="187" cy="65" r="5" fill="#D8A095" opacity=".14"/>
<path d="M314 90 C315.05 95.25 316.45 95.95 321 97 C316.45 98.05 315.05 98.75 314 104 C312.95 98.75 311.55 98.05 307 97 C311.55 95.95 312.95 95.25 314 90Z" fill="#A7AE91" opacity="0.12"/>
<g transform="translate(401 516) rotate(-38)" opacity="0.16">
<path d="M0 -13 C5 -8.06 5 8.06 0 13 C-5 8.06 -5 -8.06 0 -13Z" fill="#C7CCB7"/>
</g>
<circle cx="552" cy="348" r="3" fill="#C9B2D8" opacity=".14"/>
<path d="M36 110 C36.9 114.5 38.1 115.1 42 116 C38.1 116.9 36.9 117.5 36 122 C35.1 117.5 33.9 116.9 30 116 C33.9 115.1 35.1 114.5 36 110Z" fill="#D8A095" opacity="0.12"/>
<g transform="translate(384 482) rotate(-50)" opacity="0.16">
<path d="M0 -13 C5 -8.06 5 8.06 0 13 C-5 8.06 -5 -8.06 0 -13Z" fill="#E8D6BF"/>
</g>
<circle cx="501" cy="173" r="3" fill="#D8A095" opacity=".14"/>
<path d="M487 166 C487.9 170.5 489.1 171.1 493 172 C489.1 172.9 487.9 173.5 487 178 C486.1 173.5 484.9 172.9 481 172 C484.9 171.1 486.1 170.5 487 166Z" fill="#D8A095" opacity="0.12"/>
<g transform="translate(349 375) rotate(16)" opacity="0.16">
<path d="M0 -13 C5 -8.06 5 8.06 0 13 C-5 8.06 -5 -8.06 0 -13Z" fill="#A7AE91"/>
</g>
<circle cx="91" cy="388" r="5" fill="#D8A095" opacity=".14"/>
<path d="M227 307 C228.2 313.0 229.8 313.8 235 315 C229.8 316.2 228.2 317.0 227 323 C225.8 317.0 224.2 316.2 219 315 C224.2 313.8 225.8 313.0 227 307Z" fill="#D8A095" opacity="0.12"/>
</svg>
