<svg xmlns="http://www.w3.org/2000/svg" width="1000" height="160" viewBox="0 0 1000 160" fill="none">
<path d="M190 80 C300 40 382 118 500 80 C618 42 700 118 810 80" stroke="#7F896E" stroke-width="3" stroke-linecap="round" opacity=".45"/>
<g transform="translate(430 70) rotate(-50)" opacity="0.7">
<path d="M0 -22 C9 -14.3 9 14.3 0 22 C-9 14.3 -9 -14.3 0 -22Z" fill="#A7AE91"/>
<path d="M0 -16.5 C-1 -4.4 1 5.5 0 16.5" stroke="#7F896E" stroke-width="2" stroke-linecap="round" opacity=".28"/>
</g>
<g transform="translate(455 88) rotate(55)" opacity="0.7">
<path d="M0 -22 C9 -14.3 9 14.3 0 22 C-9 14.3 -9 -14.3 0 -22Z" fill="#A7AE91"/>
<path d="M0 -16.5 C-1 -4.4 1 5.5 0 16.5" stroke="#7F896E" stroke-width="2" stroke-linecap="round" opacity=".28"/>
</g>
<g transform="translate(545 70) rotate(50)" opacity="0.7">
<path d="M0 -22 C9 -14.3 9 14.3 0 22 C-9 14.3 -9 -14.3 0 -22Z" fill="#A7AE91"/>
<path d="M0 -16.5 C-1 -4.4 1 5.5 0 16.5" stroke="#7F896E" stroke-width="2" stroke-linecap="round" opacity=".28"/>
</g>
<g transform="translate(570 88) rotate(-55)" opacity="0.7">
<path d="M0 -22 C9 -14.3 9 14.3 0 22 C-9 14.3 -9 -14.3 0 -22Z" fill="#A7AE91"/>
<path d="M0 -16.5 C-1 -4.4 1 5.5 0 16.5" stroke="#7F896E" stroke-width="2" stroke-linecap="round" opacity=".28"/>
</g>
<circle cx="500" cy="80" r="6" fill="#D8A095" opacity=".55"/><circle cx="470" cy="80" r="3" fill="#E8D6BF" opacity=".65"/><circle cx="530" cy="80" r="3" fill="#E8D6BF" opacity=".65"/>
</svg>
